{
    "asset" : {
        "generator" : "Khronos glTF Blender I/O v3.3.32",
        "version" : "2.0"
    },
    "scene" : 0,
    "scenes" : [
        {
            "name" : "Scene",
            "nodes" : [
                0,
                1
            ]
        }
    ],
    "nodes" : [
        {
            "mesh" : 0,
            "name" : "BarrelRot"
        },
        {
            "mesh" : 1,
            "name" : "BarrelRot.001"
        }
    ],
    "meshes" : [
        {
            "name" : "BarrelRotation",
            "primitives" : [
                {
                    "attributes" : {
                        "POSITION" : 0,
                        "NORMAL" : 1,
                        "TEXCOORD_0" : 2
                    },
                    "indices" : 3
                }
            ]
        },
        {
            "name" : "BarrelRotation.001",
            "primitives" : [
                {
                    "attributes" : {
                        "POSITION" : 4,
                        "NORMAL" : 5,
                        "TEXCOORD_0" : 6
                    },
                    "indices" : 7
                }
            ]
        }
    ],
    "accessors" : [
        {
            "bufferView" : 0,
            "componentType" : 5126,
            "count" : 18657,
            "max" : [
                1.7832378149032593,
                0.8451852798461914,
                1.2977865934371948
            ],
            "min" : [
                -1.6992213726043701,
                -0.7188946604728699,
                -3.5284743309020996
            ],
            "type" : "VEC3"
        },
        {
            "bufferView" : 1,
            "componentType" : 5126,
            "count" : 18657,
            "type" : "VEC3"
        },
        {
            "bufferView" : 2,
            "componentType" : 5126,
            "count" : 18657,
            "type" : "VEC2"
        },
        {
            "bufferView" : 3,
            "componentType" : 5123,
            "count" : 20046,
            "type" : "SCALAR"
        },
        {
            "bufferView" : 4,
            "componentType" : 5126,
            "count" : 900,
            "max" : [
                1.6220988035202026,
                -0.2368733286857605,
                0.298465371131897
            ],
            "min" : [
                -1.528335690498352,
                -0.478424608707428,
                -0.07243621349334717
            ],
            "type" : "VEC3"
        },
        {
            "bufferView" : 5,
            "componentType" : 5126,
            "count" : 900,
            "type" : "VEC3"
        },
        {
            "bufferView" : 6,
            "componentType" : 5126,
            "count" : 900,
            "type" : "VEC2"
        },
        {
            "bufferView" : 7,
            "componentType" : 5123,
            "count" : 900,
            "type" : "SCALAR"
        }
    ],
    "bufferViews" : [
        {
            "buffer" : 0,
            "byteLength" : 223884,
            "byteOffset" : 0,
            "target" : 34962
        },
        {
            "buffer" : 0,
            "byteLength" : 223884,
            "byteOffset" : 223884,
            "target" : 34962
        },
        {
            "buffer" : 0,
            "byteLength" : 149256,
            "byteOffset" : 447768,
            "target" : 34962
        },
        {
            "buffer" : 0,
            "byteLength" : 40092,
            "byteOffset" : 597024,
            "target" : 34963
        },
        {
            "buffer" : 0,
            "byteLength" : 10800,
            "byteOffset" : 637116,
            "target" : 34962
        },
        {
            "buffer" : 0,
            "byteLength" : 10800,
            "byteOffset" : 647916,
            "target" : 34962
        },
        {
            "buffer" : 0,
            "byteLength" : 7200,
            "byteOffset" : 658716,
            "target" : 34962
        },
        {
            "buffer" : 0,
            "byteLength" : 1800,
            "byteOffset" : 665916,
            "target" : 34963
        }
    ],
    "buffers" : [
        {
            "byteLength" : 667716,
            "uri" : "data:application/octet-stream;base64,"
        }
    ]
}
