{
    "asset" : {
        "generator" : "Khronos glTF Blender I/O v1.8.19",
        "version" : "2.0"
    },
    "scene" : 0,
    "scenes" : [
        {
            "name" : "Scene",
            "nodes" : [
                0
            ]
        }
    ],
    "nodes" : [
        {
            "mesh" : 0,
            "name" : "Tank"
        }
    ],
    "materials" : [
        {
            "doubleSided" : true,
            "name" : "Body",
            "pbrMetallicRoughness" : {
                "baseColorFactor" : [
                    0.7011020183563232,
                    0.45641112327575684,
                    0.25015830993652344,
                    1
                ],
                "metallicFactor" : 0,
                "roughnessFactor" : 0.5
            }
        }
    ],
    "meshes" : [
        {
            "name" : "Tank",
            "primitives" : [
                {
                    "attributes" : {
                        "POSITION" : 0,
                        "NORMAL" : 1,
                        "TEXCOORD_0" : 2
                    },
                    "indices" : 3,
                    "material" : 0
                }
            ]
        }
    ],
    "accessors" : [
        {
            "bufferView" : 0,
            "componentType" : 5126,
            "count" : 11116,
            "max" : [
                1.695641040802002,
                2.5081748962402344,
                4.953095436096191
            ],
            "min" : [
                -1.7532594203948975,
                -0.7807270288467407,
                -2.642860174179077
            ],
            "type" : "VEC3"
        },
        {
            "bufferView" : 1,
            "componentType" : 5126,
            "count" : 11116,
            "type" : "VEC3"
        },
        {
            "bufferView" : 2,
            "componentType" : 5126,
            "count" : 11116,
            "type" : "VEC2"
        },
        {
            "bufferView" : 3,
            "componentType" : 5123,
            "count" : 19320,
            "type" : "SCALAR"
        }
    ],
    "bufferViews" : [
        {
            "buffer" : 0,
            "byteLength" : 133392,
            "byteOffset" : 0
        },
        {
            "buffer" : 0,
            "byteLength" : 133392,
            "byteOffset" : 133392
        },
        {
            "buffer" : 0,
            "byteLength" : 88928,
            "byteOffset" : 266784
        },
        {
            "buffer" : 0,
            "byteLength" : 38640,
            "byteOffset" : 355712
        }
    ],
    "buffers" : [
        {
            "byteLength" : 394352,
            "uri" : "data:application/octet-stream;base64,"
        }
    ]
}
